<svg width="95" height="17" viewBox="0 0 95 17" fill="none" xmlns="http://www.w3.org/2000/svg">
<path d="M0.08 0.223999H4.328V6.704H10.904V0.223999H15.152V17H10.904V10.232H4.328V17H0.08V0.223999ZM17.3066 0.223999H29.2106V3.8H21.5546V6.944H27.1466V10.28H21.5546V13.424H29.2106V17H17.3066V0.223999ZM30.9003 0.223999H38.4363C40.4043 0.223999 41.9403 0.719999 43.0443 1.712C44.1643 2.704 44.7243 4.128 44.7243 5.984C44.7243 7.232 44.4523 8.296 43.9083 9.176C43.3643 10.056 42.5963 10.712 41.6043 11.144L44.5803 17H40.2123L37.5483 11.744H35.1483V17H30.9003V0.223999ZM37.6923 8.168C38.5403 8.168 39.1963 8.008 39.6603 7.688C40.1243 7.352 40.3563 6.784 40.3563 5.984C40.3563 5.152 40.1243 4.584 39.6603 4.28C39.2123 3.96 38.5563 3.8 37.6923 3.8H35.1483V8.168H37.6923ZM49.4602 3.8H44.7322V0.223999H58.4602V3.8H53.7082V17H49.4602V3.8ZM59.7753 0.223999H64.0233V6.704H70.5993V0.223999H74.8473V17H70.5993V10.232H64.0233V17H59.7753V0.223999ZM83.2419 0.223999H87.4179L94.1139 17H89.7699L88.4259 13.544H82.2339L80.8899 17H76.5219L83.2419 0.223999ZM87.3699 10.28L85.3299 4.64L83.2659 10.28H87.3699Z" fill="#F4FF00"/>
</svg>
